<svg xmlns="http://www.w3.org/2000/svg" width="88" height="116" viewBox="0 0 88 116">
  <defs>
    <g id="s">
      <ellipse cx="-50" cy="2" rx="15" ry="8" transform="rotate(-18 -50 2)" fill="#FFFFFF" stroke="#5B6FA3" stroke-width="2.5"/>
      <ellipse cx="-52" cy="3" rx="8" ry="4" transform="rotate(-18 -52 3)" fill="#F9D9D0"/>
      <ellipse cx="50" cy="2" rx="15" ry="8" transform="rotate(18 50 2)" fill="#FFFFFF" stroke="#5B6FA3" stroke-width="2.5"/>
      <ellipse cx="52" cy="3" rx="8" ry="4" transform="rotate(18 52 3)" fill="#F9D9D0"/>
      <g fill="#5B6FA3" stroke="#5B6FA3" stroke-width="5">
        <circle cx="0" cy="0" r="35"/><circle cx="34" cy="0" r="14"/><circle cx="27.5" cy="20" r="14"/><circle cx="10.5" cy="32.3" r="14"/><circle cx="-10.5" cy="32.3" r="14"/><circle cx="-27.5" cy="20" r="14"/><circle cx="-34" cy="0" r="14"/><circle cx="-27.5" cy="-20" r="14"/><circle cx="-10.5" cy="-32.3" r="14"/><circle cx="10.5" cy="-32.3" r="14"/><circle cx="27.5" cy="-20" r="14"/>
      </g>
      <g fill="#FFFFFF">
        <circle cx="0" cy="0" r="35"/><circle cx="34" cy="0" r="14"/><circle cx="27.5" cy="20" r="14"/><circle cx="10.5" cy="32.3" r="14"/><circle cx="-10.5" cy="32.3" r="14"/><circle cx="-27.5" cy="20" r="14"/><circle cx="-34" cy="0" r="14"/><circle cx="-27.5" cy="-20" r="14"/><circle cx="-10.5" cy="-32.3" r="14"/><circle cx="10.5" cy="-32.3" r="14"/><circle cx="27.5" cy="-20" r="14"/>
      </g>
      <ellipse cx="0" cy="10" rx="29" ry="20" fill="#FDF0EA"/>
      <circle cx="-11" cy="5" r="2.8" fill="#4A3B3B"/>
      <circle cx="11" cy="5" r="2.8" fill="#4A3B3B"/>
      <ellipse cx="-20" cy="14" rx="6.5" ry="4.5" fill="#F4B5A6"/>
      <ellipse cx="20" cy="14" rx="6.5" ry="4.5" fill="#F4B5A6"/>
      <path d="M-4.5 12 q2.25 3 4.5 0 q2.25 3 4.5 0" fill="none" stroke="#4A3B3B" stroke-width="1.5" stroke-linecap="round"/>
    </g>
  </defs>
  <g opacity="0.7">
    <use href="#s" transform="translate(-66 -87) rotate(-8) scale(0.44)"/>
    <use href="#s" transform="translate(-66 29) rotate(-8) scale(0.44)"/>
    <use href="#s" transform="translate(-66 145) rotate(-8) scale(0.44)"/>
    <use href="#s" transform="translate(22 -87) rotate(-8) scale(0.44)"/>
    <use href="#s" transform="translate(22 29) rotate(-8) scale(0.44)"/>
    <use href="#s" transform="translate(22 145) rotate(-8) scale(0.44)"/>
    <use href="#s" transform="translate(110 -87) rotate(-8) scale(0.44)"/>
    <use href="#s" transform="translate(110 29) rotate(-8) scale(0.44)"/>
    <use href="#s" transform="translate(110 145) rotate(-8) scale(0.44)"/>
    <use href="#s" transform="translate(-22 -29) rotate(7) scale(0.44)"/>
    <use href="#s" transform="translate(-22 87) rotate(7) scale(0.44)"/>
    <use href="#s" transform="translate(-22 203) rotate(7) scale(0.44)"/>
    <use href="#s" transform="translate(66 -29) rotate(7) scale(0.44)"/>
    <use href="#s" transform="translate(66 87) rotate(7) scale(0.44)"/>
    <use href="#s" transform="translate(66 203) rotate(7) scale(0.44)"/>
    <use href="#s" transform="translate(154 -29) rotate(7) scale(0.44)"/>
    <use href="#s" transform="translate(154 87) rotate(7) scale(0.44)"/>
    <use href="#s" transform="translate(154 203) rotate(7) scale(0.44)"/>
  </g>
</svg>
